STARTFONT 2.1
FONT -PPants-Moose-Medium-R-Normal--12-120-75-75-P-50-ISO8859-1
SIZE 1 75 75
FONTBOUNDINGBOX 7 12 0 -2
STARTPROPERTIES 17
POINT_SIZE 12
PIXEL_SIZE 120
RESOLUTION_X 75
RESOLUTION_Y 75
FONT_ASCENT 11
FONT_DESCENT 3
AVERAGE_WIDTH 50
_XMBDFED_INFO "Edited with xmbdfed 4.5."
CAP_HEIGHT 8
X_HEIGHT 5
FOUNDRY "PPants"
FAMILY_NAME "Moose"
WEIGHT_NAME "Medium"
SLANT "R"
SETWIDTH_NAME "Normal"
CHARSET_REGISTRY "ISO8859"
CHARSET_ENCODING "1"
ENDPROPERTIES
CHARS 96
STARTCHAR char20
ENCODING 20
SWIDTH 5760 0
DWIDTH 6 0
BBX 5 8 1 0
BITMAP
78
A8
A8
68
28
28
28
28
ENDCHAR
STARTCHAR char32
ENCODING 32
SWIDTH 3840 0
DWIDTH 4 0
BBX 0 0 0 0
BITMAP
ENDCHAR
STARTCHAR char33
ENCODING 33
SWIDTH 1920 0
DWIDTH 2 0
BBX 1 9 1 0
BITMAP
80
80
80
80
80
80
80
00
80
ENDCHAR
STARTCHAR char34
ENCODING 34
SWIDTH 4800 0
DWIDTH 5 0
BBX 4 3 1 6
BITMAP
90
90
90
ENDCHAR
STARTCHAR char35
ENCODING 35
SWIDTH 6720 0
DWIDTH 7 0
BBX 6 6 1 1
BITMAP
40
7C
48
48
F8
08
ENDCHAR
STARTCHAR char36
ENCODING 36
SWIDTH 5760 0
DWIDTH 6 0
BBX 5 10 1 -1
BITMAP
20
70
A8
A0
70
28
28
A8
70
20
ENDCHAR
STARTCHAR char37
ENCODING 37
SWIDTH 5760 0
DWIDTH 6 0
BBX 5 10 1 -1
BITMAP
08
88
10
10
20
20
40
40
88
80
ENDCHAR
STARTCHAR char38
ENCODING 38
SWIDTH 6720 0
DWIDTH 7 0
BBX 6 8 1 0
BITMAP
78
48
FC
88
88
88
88
F8
ENDCHAR
STARTCHAR char39
ENCODING 39
SWIDTH 2880 0
DWIDTH 3 0
BBX 2 2 1 7
BITMAP
40
80
ENDCHAR
STARTCHAR char40
ENCODING 40
SWIDTH 2880 0
DWIDTH 3 0
BBX 2 11 1 -1
BITMAP
40
80
80
80
80
80
80
80
80
80
40
ENDCHAR
STARTCHAR char41
ENCODING 41
SWIDTH 2880 0
DWIDTH 3 0
BBX 2 11 1 -1
BITMAP
80
40
40
40
40
40
40
40
40
40
80
ENDCHAR
STARTCHAR char42
ENCODING 42
SWIDTH 5760 0
DWIDTH 6 0
BBX 5 4 1 5
BITMAP
20
F8
70
88
ENDCHAR
STARTCHAR char43
ENCODING 43
SWIDTH 5760 0
DWIDTH 6 0
BBX 5 5 1 2
BITMAP
20
20
F8
20
20
ENDCHAR
STARTCHAR char44
ENCODING 44
SWIDTH 2880 0
DWIDTH 3 0
BBX 2 2 1 -1
BITMAP
40
80
ENDCHAR
STARTCHAR char45
ENCODING 45
SWIDTH 5760 0
DWIDTH 6 0
BBX 5 1 1 4
BITMAP
F8
ENDCHAR
STARTCHAR char46
ENCODING 46
SWIDTH 1920 0
DWIDTH 2 0
BBX 2 1 0 0
BITMAP
40
ENDCHAR
STARTCHAR char47
ENCODING 47
SWIDTH 5760 0
DWIDTH 6 0
BBX 6 10 0 -1
BITMAP
04
04
08
08
10
10
20
20
40
40
ENDCHAR
STARTCHAR char48
ENCODING 48
SWIDTH 4800 0
DWIDTH 5 0
BBX 4 8 1 0
BITMAP
F0
90
90
90
90
90
90
F0
ENDCHAR
STARTCHAR char49
ENCODING 49
SWIDTH 2880 0
DWIDTH 3 0
BBX 2 8 1 0
BITMAP
40
C0
40
40
40
40
40
40
ENDCHAR
STARTCHAR char50
ENCODING 50
SWIDTH 4800 0
DWIDTH 5 0
BBX 4 8 1 0
BITMAP
F0
90
10
F0
80
80
90
F0
ENDCHAR
STARTCHAR char51
ENCODING 51
SWIDTH 4800 0
DWIDTH 5 0
BBX 4 8 1 0
BITMAP
F0
10
10
70
10
10
10
F0
ENDCHAR
STARTCHAR char52
ENCODING 52
SWIDTH 4800 0
DWIDTH 5 0
BBX 4 8 1 0
BITMAP
20
A0
A0
A0
F0
20
20
20
ENDCHAR
STARTCHAR char53
ENCODING 53
SWIDTH 4800 0
DWIDTH 5 0
BBX 4 8 1 0
BITMAP
F0
80
80
F0
10
10
90
F0
ENDCHAR
STARTCHAR char54
ENCODING 54
SWIDTH 4800 0
DWIDTH 5 0
BBX 4 8 1 0
BITMAP
F0
80
80
F0
90
90
90
F0
ENDCHAR
STARTCHAR char55
ENCODING 55
SWIDTH 4800 0
DWIDTH 5 0
BBX 4 8 1 0
BITMAP
F0
10
10
20
40
40
40
40
ENDCHAR
STARTCHAR char56
ENCODING 56
SWIDTH 4800 0
DWIDTH 5 0
BBX 4 8 1 0
BITMAP
F0
90
90
F0
90
90
90
F0
ENDCHAR
STARTCHAR char57
ENCODING 57
SWIDTH 4800 0
DWIDTH 5 0
BBX 4 8 1 0
BITMAP
F0
90
90
F0
10
10
10
10
ENDCHAR
STARTCHAR char58
ENCODING 58
SWIDTH 2880 0
DWIDTH 3 0
BBX 1 6 1 0
BITMAP
80
00
00
00
00
80
ENDCHAR
STARTCHAR char59
ENCODING 59
SWIDTH 2880 0
DWIDTH 3 0
BBX 2 7 1 -1
BITMAP
40
00
00
00
00
40
80
ENDCHAR
STARTCHAR char60
ENCODING 60
SWIDTH 4800 0
DWIDTH 5 0
BBX 4 7 1 1
BITMAP
10
20
40
80
40
20
10
ENDCHAR
STARTCHAR char61
ENCODING 61
SWIDTH 5760 0
DWIDTH 6 0
BBX 5 4 1 2
BITMAP
F8
00
00
F8
ENDCHAR
STARTCHAR char62
ENCODING 62
SWIDTH 4800 0
DWIDTH 5 0
BBX 4 7 1 1
BITMAP
80
40
20
10
20
40
80
ENDCHAR
STARTCHAR char63
ENCODING 63
SWIDTH 5760 0
DWIDTH 6 0
BBX 5 8 1 0
BITMAP
F8
08
08
38
20
20
00
20
ENDCHAR
STARTCHAR char64
ENCODING 64
SWIDTH 6720 0
DWIDTH 7 0
BBX 6 9 1 0
BITMAP
78
84
B4
B4
B4
A4
98
80
78
ENDCHAR
STARTCHAR char65
ENCODING 65
SWIDTH 5760 0
DWIDTH 6 0
BBX 5 9 1 0
BITMAP
F8
88
88
F8
88
88
88
88
88
ENDCHAR
STARTCHAR char66
ENCODING 66
SWIDTH 5760 0
DWIDTH 6 0
BBX 5 9 1 0
BITMAP
F0
88
88
F0
88
88
88
88
F8
ENDCHAR
STARTCHAR char67
ENCODING 67
SWIDTH 5760 0
DWIDTH 6 0
BBX 5 9 1 0
BITMAP
F8
80
80
80
80
80
80
80
F8
ENDCHAR
STARTCHAR char68
ENCODING 68
SWIDTH 5760 0
DWIDTH 6 0
BBX 5 9 1 0
BITMAP
F0
88
88
88
88
88
88
88
F8
ENDCHAR
STARTCHAR char69
ENCODING 69
SWIDTH 5760 0
DWIDTH 6 0
BBX 5 9 1 0
BITMAP
F8
80
80
E0
80
80
80
80
F8
ENDCHAR
STARTCHAR char70
ENCODING 70
SWIDTH 5760 0
DWIDTH 6 0
BBX 5 9 1 0
BITMAP
F8
80
80
E0
80
80
80
80
80
ENDCHAR
STARTCHAR char71
ENCODING 71
SWIDTH 5760 0
DWIDTH 6 0
BBX 5 9 1 0
BITMAP
F8
80
80
80
80
98
88
88
F8
ENDCHAR
STARTCHAR char72
ENCODING 72
SWIDTH 5760 0
DWIDTH 6 0
BBX 5 9 1 0
BITMAP
88
88
88
F8
88
88
88
88
88
ENDCHAR
STARTCHAR char73
ENCODING 73
SWIDTH 3840 0
DWIDTH 4 0
BBX 3 9 1 0
BITMAP
E0
40
40
40
40
40
40
40
E0
ENDCHAR
STARTCHAR char74
ENCODING 74
SWIDTH 5760 0
DWIDTH 6 0
BBX 5 9 1 0
BITMAP
F8
08
08
08
08
08
08
90
E0
ENDCHAR
STARTCHAR char75
ENCODING 75
SWIDTH 5760 0
DWIDTH 6 0
BBX 5 9 1 0
BITMAP
88
90
A0
D0
88
88
88
88
88
ENDCHAR
STARTCHAR char76
ENCODING 76
SWIDTH 4800 0
DWIDTH 5 0
BBX 4 9 1 0
BITMAP
80
80
80
80
80
80
80
80
F0
ENDCHAR
STARTCHAR char77
ENCODING 77
SWIDTH 5760 0
DWIDTH 6 0
BBX 5 9 1 0
BITMAP
D8
A8
A8
88
88
88
88
88
88
ENDCHAR
STARTCHAR char78
ENCODING 78
SWIDTH 5760 0
DWIDTH 6 0
BBX 5 9 1 0
BITMAP
C8
A8
98
88
88
88
88
88
88
ENDCHAR
STARTCHAR char79
ENCODING 79
SWIDTH 5760 0
DWIDTH 6 0
BBX 5 9 1 0
BITMAP
F8
88
88
88
88
88
88
88
F8
ENDCHAR
STARTCHAR char80
ENCODING 80
SWIDTH 5760 0
DWIDTH 6 0
BBX 5 9 1 0
BITMAP
F8
88
88
88
F8
80
80
80
80
ENDCHAR
STARTCHAR char81
ENCODING 81
SWIDTH 5760 0
DWIDTH 6 0
BBX 5 9 1 0
BITMAP
F8
88
88
88
88
88
A8
98
F8
ENDCHAR
STARTCHAR char82
ENCODING 82
SWIDTH 5760 0
DWIDTH 6 0
BBX 5 9 1 0
BITMAP
F8
88
88
88
F8
90
88
88
88
ENDCHAR
STARTCHAR char83
ENCODING 83
SWIDTH 5760 0
DWIDTH 6 0
BBX 5 9 1 0
BITMAP
F8
80
80
F8
08
08
08
08
F8
ENDCHAR
STARTCHAR char84
ENCODING 84
SWIDTH 5760 0
DWIDTH 6 0
BBX 5 9 1 0
BITMAP
F8
20
20
20
20
20
20
20
20
ENDCHAR
STARTCHAR char85
ENCODING 85
SWIDTH 5760 0
DWIDTH 6 0
BBX 5 9 1 0
BITMAP
88
88
88
88
88
88
88
88
F8
ENDCHAR
STARTCHAR char86
ENCODING 86
SWIDTH 5760 0
DWIDTH 6 0
BBX 5 9 1 0
BITMAP
88
88
88
88
88
88
88
50
20
ENDCHAR
STARTCHAR char87
ENCODING 87
SWIDTH 5760 0
DWIDTH 6 0
BBX 5 9 1 0
BITMAP
88
88
88
88
88
88
A8
A8
D8
ENDCHAR
STARTCHAR char88
ENCODING 88
SWIDTH 5760 0
DWIDTH 6 0
BBX 5 9 1 0
BITMAP
88
88
50
20
50
88
88
88
88
ENDCHAR
STARTCHAR char89
ENCODING 89
SWIDTH 5760 0
DWIDTH 6 0
BBX 5 9 1 0
BITMAP
88
88
88
50
20
20
20
20
20
ENDCHAR
STARTCHAR char90
ENCODING 90
SWIDTH 5760 0
DWIDTH 6 0
BBX 5 9 1 0
BITMAP
F8
08
10
20
40
80
80
80
F8
ENDCHAR
STARTCHAR char91
ENCODING 91
SWIDTH 2880 0
DWIDTH 3 0
BBX 3 11 0 -1
BITMAP
60
40
40
40
40
40
40
40
40
40
60
ENDCHAR
STARTCHAR char92
ENCODING 92
SWIDTH 5760 0
DWIDTH 6 0
BBX 6 10 0 -1
BITMAP
40
40
20
20
10
10
08
08
04
04
ENDCHAR
STARTCHAR char93
ENCODING 93
SWIDTH 2880 0
DWIDTH 3 0
BBX 3 11 0 -1
BITMAP
60
20
20
20
20
20
20
20
20
20
60
ENDCHAR
STARTCHAR char94
ENCODING 94
SWIDTH 5760 0
DWIDTH 6 0
BBX 5 3 1 6
BITMAP
20
50
88
ENDCHAR
STARTCHAR char95
ENCODING 95
SWIDTH 5760 0
DWIDTH 6 0
BBX 6 1 0 -1
BITMAP
7C
ENDCHAR
STARTCHAR char96
ENCODING 96
SWIDTH 2880 0
DWIDTH 3 0
BBX 2 2 1 7
BITMAP
80
40
ENDCHAR
STARTCHAR char97
ENCODING 97
SWIDTH 5760 0
DWIDTH 6 0
BBX 5 7 1 0
BITMAP
F8
08
F8
88
88
88
F8
ENDCHAR
STARTCHAR char98
ENCODING 98
SWIDTH 5760 0
DWIDTH 6 0
BBX 5 9 1 0
BITMAP
80
80
F8
88
88
88
88
88
F8
ENDCHAR
STARTCHAR char99
ENCODING 99
SWIDTH 4800 0
DWIDTH 5 0
BBX 4 7 1 0
BITMAP
F0
80
80
80
80
80
F0
ENDCHAR
STARTCHAR char100
ENCODING 100
SWIDTH 5760 0
DWIDTH 6 0
BBX 5 9 1 0
BITMAP
08
08
F8
88
88
88
88
88
F8
ENDCHAR
STARTCHAR char101
ENCODING 101
SWIDTH 5760 0
DWIDTH 6 0
BBX 5 7 1 0
BITMAP
F8
88
88
88
F8
80
F8
ENDCHAR
STARTCHAR char102
ENCODING 102
SWIDTH 4800 0
DWIDTH 5 0
BBX 4 8 1 -1
BITMAP
70
80
80
80
E0
80
80
80
ENDCHAR
STARTCHAR char103
ENCODING 103
SWIDTH 5760 0
DWIDTH 6 0
BBX 5 9 1 -2
BITMAP
F8
88
88
88
88
88
F8
08
F8
ENDCHAR
STARTCHAR char104
ENCODING 104
SWIDTH 5760 0
DWIDTH 6 0
BBX 5 9 1 0
BITMAP
80
80
F8
88
88
88
88
88
88
ENDCHAR
STARTCHAR char105
ENCODING 105
SWIDTH 1920 0
DWIDTH 2 0
BBX 1 9 1 0
BITMAP
80
00
80
80
80
80
80
80
80
ENDCHAR
STARTCHAR char106
ENCODING 106
SWIDTH 2880 0
DWIDTH 3 0
BBX 2 10 1 -1
BITMAP
40
00
40
40
40
40
40
40
40
80
ENDCHAR
STARTCHAR char107
ENCODING 107
SWIDTH 5760 0
DWIDTH 6 0
BBX 5 9 1 0
BITMAP
80
80
88
90
A0
D0
88
88
88
ENDCHAR
STARTCHAR char108
ENCODING 108
SWIDTH 2880 0
DWIDTH 3 0
BBX 2 9 1 0
BITMAP
80
80
80
80
80
80
80
80
C0
ENDCHAR
STARTCHAR char109
ENCODING 109
SWIDTH 5760 0
DWIDTH 6 0
BBX 5 7 1 0
BITMAP
D8
A8
A8
88
88
88
88
ENDCHAR
STARTCHAR char110
ENCODING 110
SWIDTH 5760 0
DWIDTH 6 0
BBX 5 7 1 0
BITMAP
F0
88
88
88
88
88
88
ENDCHAR
STARTCHAR char111
ENCODING 111
SWIDTH 5760 0
DWIDTH 6 0
BBX 5 7 1 0
BITMAP
F8
88
88
88
88
88
F8
ENDCHAR
STARTCHAR char112
ENCODING 112
SWIDTH 5760 0
DWIDTH 6 0
BBX 5 9 1 -2
BITMAP
F8
88
88
88
88
88
F8
80
80
ENDCHAR
STARTCHAR char113
ENCODING 113
SWIDTH 5760 0
DWIDTH 6 0
BBX 5 9 1 -2
BITMAP
F8
88
88
88
88
88
F8
08
08
ENDCHAR
STARTCHAR char114
ENCODING 114
SWIDTH 4800 0
DWIDTH 5 0
BBX 4 7 1 0
BITMAP
F0
80
80
80
80
80
80
ENDCHAR
STARTCHAR char115
ENCODING 115
SWIDTH 5760 0
DWIDTH 6 0
BBX 5 7 1 0
BITMAP
F8
80
F8
08
08
08
F8
ENDCHAR
STARTCHAR char116
ENCODING 116
SWIDTH 3840 0
DWIDTH 4 0
BBX 3 9 1 0
BITMAP
40
40
E0
40
40
40
40
40
40
ENDCHAR
STARTCHAR char117
ENCODING 117
SWIDTH 5760 0
DWIDTH 6 0
BBX 5 7 1 0
BITMAP
88
88
88
88
88
88
F8
ENDCHAR
STARTCHAR char118
ENCODING 118
SWIDTH 5760 0
DWIDTH 6 0
BBX 5 7 1 0
BITMAP
88
88
88
88
88
50
20
ENDCHAR
STARTCHAR char119
ENCODING 119
SWIDTH 5760 0
DWIDTH 6 0
BBX 5 7 1 0
BITMAP
88
88
88
88
A8
A8
D8
ENDCHAR
STARTCHAR char120
ENCODING 120
SWIDTH 5760 0
DWIDTH 6 0
BBX 5 7 1 0
BITMAP
88
50
20
50
88
88
88
ENDCHAR
STARTCHAR char121
ENCODING 121
SWIDTH 5760 0
DWIDTH 6 0
BBX 5 9 1 -2
BITMAP
88
88
88
88
88
88
F8
08
F8
ENDCHAR
STARTCHAR char122
ENCODING 122
SWIDTH 5760 0
DWIDTH 6 0
BBX 5 7 1 0
BITMAP
F8
08
10
20
40
80
F8
ENDCHAR
STARTCHAR char123
ENCODING 123
SWIDTH 4800 0
DWIDTH 5 0
BBX 4 11 1 -1
BITMAP
10
20
20
20
40
80
40
20
20
20
10
ENDCHAR
STARTCHAR char124
ENCODING 124
SWIDTH 2880 0
DWIDTH 3 0
BBX 1 9 1 0
BITMAP
80
80
80
80
00
80
80
80
80
ENDCHAR
STARTCHAR char125
ENCODING 125
SWIDTH 4800 0
DWIDTH 5 0
BBX 5 11 1 -1
BITMAP
80
40
40
40
20
10
20
40
40
40
80
ENDCHAR
STARTCHAR char126
ENCODING 126
SWIDTH 5760 0
DWIDTH 6 0
BBX 5 3 1 3
BITMAP
C8
A8
98
ENDCHAR
ENDFONT
